<svg version="1.1" version="1.1" preserveAspectRatio="xMidYMin meet" viewBox="0 0 36 50">
<g>
	<g>
		<circle fill="#6E90CA" cx="18.1" cy="28.7" r="7.1"/>
		<path fill="#F2AF56" d="M27.2,14.8c0,0-16.8,0-17.5,0c-1.1,0-1.8-0.6-1.2-1.8c0.4-0.9,3.1-7.1,3.4-7.7c0.5-1,1.1-1.1,2.1-0.4
			c1,0.7,12.2,7.7,13.2,8.5C28.3,14.2,27.7,14.8,27.2,14.8z"/>
		<circle fill="#F2AF56" cx="23.6" cy="6.4" r="2.5"/>
		<path fill="#6E90CA" d="M34.6,20.7c-2.1-1.3-3.7,0.4-7.5,4.5c-0.9,0.9,0.7,2.9-0.7,6.8c-1.3,3.7-4.9,6.1-8.5,6.1
			c-3.6,0-7.2-2.4-8.5-6.1c-1.3-3.8,0.2-5.8-0.7-6.8c-3.8-4.2-5.4-5.9-7.5-4.5C-2.1,23,5.2,43,10.2,47.5C13,50.1,15.5,50,18,50
			c2.5,0,5,0.1,7.8-2.5C30.8,43,38.1,23,34.6,20.7z"/>
		<path fill="#6E90CA" d="M6.7,18.9c-2.5,0-3.3-1.1-3-3L6.6,1.3C6.7,0.5,7.2,0,7.9,0l20.6,0c0.7,0,1.2,0.5,1.3,1.3l2.8,14.5
			c0.3,1.9-0.5,3-3,3H6.7z M28.5,16.3c1.1,0,1.6-0.7,1.4-1.6l-2-11.4c-0.1-0.6-0.4-1-1-1H9.5c-0.5,0-0.9,0.4-1,1l-2,11.4
			c-0.2,1,0.3,1.6,1.4,1.6H28.5z"/>
	</g>
</g>
</svg>