<svg version="1.1" xmlns="http://www.w3.org/2000/svg" viewBox="0 0 1008 1152" preserveAspectRatio="xMidYMin meet">
<g>
	<g>
		<path fill="#F3B056" d="M820.4,261.3c0,0-241.4,0-251.6,0c-16,0-25.5-8.3-17.5-25.6c5.8-12.5,43.9-101.8,48.2-110.9
			c6.8-14.3,15.8-15.8,30.6-5.3c14.4,10.2,174.7,110,190.2,122.2C835.3,253.6,826.4,261.3,820.4,261.3z"/>
		<circle fill="#F3B056" cx="767.7" cy="141.1" r="35.7"/>
		<path fill="#6E91CB" d="M526.3,320.1c-36.5,0-47.8-16.5-43-43.6l40.4-208.1c1.9-12.3,8.7-19.1,18.9-19.1h295.1
			c10.2,0,17,6.9,18.9,19.1l40.4,208.1c4.7,27.1-6.5,43.6-43,43.6H526.3z M838,283.7c16,0,23.1-9.4,20.2-23.3L828.9,96.9
			c-1.4-8.3-6.3-14.2-14.1-14.2H565.2c-7.7,0-12.7,5.9-14.1,14.2L522,260.3c-2.9,14,4.2,23.3,20.2,23.3H838z"/>
		<path fill="#6E91CB" d="M926.5,346.6c-29.6-19.2-52.6,5.1-107.6,65c-12.4,13.5,9.7,42.1-9.5,97.2c-18.4,52.8-69.9,87.2-121.5,87.9
			c-51.6-0.6-103.2-35-121.5-87.9c-19.2-55.1,2.9-83.7-9.5-97.2c-55-60-78-84.2-107.6-65c-49.9,32.2,54.6,319.3,126.2,384.1
			c41.2,37.3,77,36.3,112.5,36.3c35.5,0,71.3,1,112.5-36.3C871.9,665.8,976.3,378.8,926.5,346.6z"/>
		<circle fill="#6E91CB" cx="688.8" cy="461.6" r="102.3"/>
	</g>
	<g>
		<g>
			<path fill="#F3B056" d="M545.8,981.8c-13.9,0-24.9,4.6-33,13.9c-8.1,9.3-12.1,22-12.1,38.1c0,16.6,3.9,29.4,11.7,38.5
				c7.8,9.1,18.9,13.6,33.3,13.6c8.8,0,18.9-1.6,30.3-4.8v12.9c-8.8,3.3-19.6,4.9-32.5,4.9c-18.7,0-33.1-5.7-43.2-17
				c-10.1-11.3-15.2-27.4-15.2-48.3c0-13.1,2.4-24.5,7.3-34.3c4.9-9.8,11.9-17.4,21.2-22.7c9.2-5.3,20.1-8,32.6-8
				c13.3,0,24.9,2.4,34.9,7.3l-6.2,12.7C565,984.1,555.4,981.8,545.8,981.8z"/>
			<path fill="#F3B056" d="M607.1,1097.3V970.4h14.7v113.5h55.9v13.4H607.1z"/>
			<path fill="#F3B056" d="M794.2,970.4v82.1c0,14.5-4.4,25.8-13.1,34.1c-8.7,8.3-20.7,12.4-36,12.4s-27.1-4.2-35.4-12.5
				c-8.4-8.3-12.5-19.8-12.5-34.3v-81.7h14.7v82.8c0,10.6,2.9,18.7,8.7,24.4c5.8,5.7,14.3,8.5,25.5,8.5c10.7,0,18.9-2.8,24.7-8.5
				c5.8-5.7,8.7-13.9,8.7-24.5v-82.6H794.2z"/>
			<path fill="#F3B056" d="M820.7,970.4h35.8c16.8,0,29,2.5,36.5,7.5c7.5,5,11.3,13,11.3,23.9c0,7.5-2.1,13.7-6.3,18.6
				c-4.2,4.9-10.3,8.1-18.3,9.5v0.9c19.3,3.3,28.9,13.4,28.9,30.4c0,11.3-3.8,20.2-11.5,26.5c-7.7,6.4-18.4,9.5-32.1,9.5h-44.2
				V970.4z M835.4,1024.7h24.3c10.4,0,17.9-1.6,22.5-4.9c4.6-3.3,6.9-8.8,6.9-16.5c0-7.1-2.5-12.2-7.6-15.4
				c-5.1-3.2-13.2-4.7-24.3-4.7h-21.7V1024.7z M835.4,1037.2v47.4h26.5c10.2,0,17.9-2,23.1-5.9c5.2-4,7.8-10.2,7.8-18.6
				c0-7.9-2.6-13.6-7.9-17.3c-5.3-3.7-13.3-5.6-24.2-5.6H835.4z"/>
		</g>
		<g>
			<path fill="#6E91CB" d="M160.6,852.7c0,14.2-4.2,25.1-12.5,32.8c-8.4,7.7-20.2,11.6-35.6,11.6h-9.6v42.1H68.5V812.4h43.9
				c16,0,28,3.5,36.1,10.5C156.5,829.9,160.6,839.8,160.6,852.7z M102.8,869.2h6.2c5.1,0,9.2-1.4,12.3-4.3c3-2.9,4.6-6.9,4.6-12
				c0-8.6-4.7-12.8-14.2-12.8h-8.8V869.2z"/>
			<path fill="#6E91CB" d="M211.5,893v46.1h-34.3V812.4h41.5c34.5,0,51.7,12.5,51.7,37.5c0,14.7-7.2,26.1-21.5,34.1l37,55.3H247
				L220.2,893H211.5z M211.5,867.3h6.4c12,0,18-5.3,18-15.9c0-8.7-5.9-13.1-17.6-13.1h-6.8V867.3z"/>
			<path fill="#6E91CB" d="M417,875.6c0,21.3-5.2,37.6-15.7,48.7c-10.5,11.1-25.8,16.7-46,16.7c-19.9,0-35.1-5.6-45.8-16.7
				c-10.6-11.2-15.9-27.4-15.9-48.7c0-21.1,5.3-37.2,15.8-48.4c10.6-11.1,25.9-16.7,46-16.7c20.2,0,35.5,5.5,45.9,16.6
				C411.8,838,417,854.2,417,875.6z M329.7,875.6c0,24.5,8.5,36.8,25.6,36.8c8.7,0,15.1-3,19.3-8.9c4.2-6,6.3-15.2,6.3-27.8
				c0-12.7-2.1-22-6.4-28.1c-4.3-6-10.6-9.1-19-9.1C338.3,838.5,329.7,850.9,329.7,875.6z"/>
			<path fill="#6E91CB" d="M430.8,979c-6.2,0-12.2-0.6-17.8-1.8v-26.6c1.9,0.3,3.8,0.7,5.9,1.2s4.3,0.7,6.8,0.7
				c5.7,0,9.7-1.7,12.1-5.1c2.4-3.4,3.6-9.3,3.6-17.5V812.4h34.4v114.4c0,17.2-3.8,30.2-11.3,39C457.1,974.6,445.8,979,430.8,979z"
				/>
			<path fill="#6E91CB" d="M576.8,939.2h-75.3V812.4h75.3v27.5h-41v20h38v27.5h-38v23.9h41V939.2z"/>
			<path fill="#6E91CB" d="M656.4,838.7c-8.2,0-14.5,3.3-19.1,10c-4.6,6.7-6.9,15.9-6.9,27.6c0,24.4,9.3,36.6,27.8,36.6
				c5.6,0,11-0.8,16.3-2.3c5.3-1.6,10.6-3.4,15.9-5.6v29c-10.6,4.7-22.6,7-35.9,7c-19.1,0-33.8-5.6-44-16.7
				c-10.2-11.1-15.3-27.1-15.3-48.1c0-13.1,2.5-24.7,7.4-34.6c4.9-9.9,12.1-17.6,21.3-22.9c9.3-5.3,20.2-8,32.7-8
				c13.7,0,26.8,3,39.3,8.9l-10.5,27c-4.7-2.2-9.4-4-14.1-5.6C666.8,839.4,661.8,838.7,656.4,838.7z"/>
			<path fill="#6E91CB" d="M772,939.2h-34.3v-98.8h-31v-28h96.1v28H772V939.2z"/>
			<path fill="#6E91CB" d="M904.9,900.7c0,7.9-2,14.8-6,20.9c-4,6.1-9.7,10.8-17.3,14.2c-7.5,3.4-16.3,5.1-26.5,5.1
				c-8.4,0-15.5-0.6-21.3-1.8c-5.7-1.2-11.7-3.3-17.9-6.2v-30.5c6.5,3.4,13.3,6,20.4,7.9c7.1,1.9,13.5,2.8,19.4,2.8
				c5.1,0,8.8-0.9,11.2-2.6c2.4-1.8,3.6-4,3.6-6.8c0-1.7-0.5-3.3-1.4-4.6c-1-1.3-2.5-2.6-4.6-3.9c-2.1-1.3-7.7-4-16.9-8.2
				c-8.3-3.8-14.5-7.4-18.6-10.9c-4.1-3.5-7.2-7.6-9.2-12.1c-2-4.6-3-10-3-16.2c0-11.7,4.3-20.8,12.8-27.3c8.5-6.5,20.2-9.8,35-9.8
				c13.1,0,26.5,3,40.2,9.1l-10.5,26.5c-11.9-5.4-22.1-8.2-30.7-8.2c-4.5,0-7.7,0.8-9.7,2.3c-2,1.6-3,3.5-3,5.8
				c0,2.5,1.3,4.7,3.9,6.7c2.6,2,9.6,5.6,20.9,10.8c10.9,4.9,18.5,10.2,22.8,15.8C902.7,885,904.9,892.1,904.9,900.7z"/>
		</g>
		<g>
			<path fill="#6E91CB" d="M149.2,747.3c0,11.2-4,19.9-12.1,26.1c-8.1,6.2-19.1,9.4-33,9.4c-15,0-26.6-1.9-34.7-5.8v-14.2
				c5.2,2.2,10.9,3.9,17,5.2c6.1,1.3,12.2,1.9,18.2,1.9c9.8,0,17.2-1.9,22.2-5.6c5-3.7,7.5-8.9,7.5-15.6c0-4.4-0.9-8-2.6-10.8
				c-1.8-2.8-4.7-5.4-8.8-7.8c-4.1-2.4-10.4-5.1-18.9-8.1c-11.8-4.2-20.2-9.2-25.3-15c-5.1-5.8-7.6-13.3-7.6-22.6
				c0-9.8,3.7-17.6,11-23.3c7.3-5.8,17.1-8.7,29.1-8.7c12.6,0,24.2,2.3,34.8,6.9l-4.6,12.8c-10.5-4.4-20.6-6.6-30.5-6.6
				c-7.8,0-13.9,1.7-18.3,5c-4.4,3.4-6.6,8-6.6,14c0,4.4,0.8,8,2.4,10.8c1.6,2.8,4.4,5.4,8.2,7.7c3.8,2.3,9.7,4.9,17.7,7.8
				c13.3,4.7,22.5,9.8,27.5,15.3C146.7,731.6,149.2,738.6,149.2,747.3z"/>
			<path fill="#6E91CB" d="M178.7,781V654.2h14.7V781H178.7z"/>
			<path fill="#6E91CB" d="M329.4,716.4c0,20.9-5.7,36.9-17,48C301,775.5,284.7,781,263.4,781h-35.1V654.2h38.9
				c19.7,0,35,5.5,46,16.4C324,681.5,329.4,696.8,329.4,716.4z M313.8,716.9c0-16.5-4.1-29-12.4-37.4c-8.3-8.4-20.6-12.6-37-12.6
				H243v101.3h18c17.6,0,30.8-4.3,39.6-13C309.4,746.7,313.8,733.9,313.8,716.9z"/>
			<path fill="#6E91CB" d="M425.8,781h-70.7V654.2h70.7v13.1h-55.9v40.9h52.6v13h-52.6v46.7h55.9V781z"/>
		</g>
	</g>
</g>
</svg>
